<?xml version="1.0" encoding="UTF-8" standalone="no"?>
<!-- Created with Inkscape (http://www.inkscape.org/) -->

<svg
   width="1128"
   height="376"
   viewBox="0 0 1128 376"
   version="1.1"
   id="svg1"
   xmlns="http://www.w3.org/2000/svg"
   xmlns:svg="http://www.w3.org/2000/svg">
  <defs
     id="defs1" />
  <g
     id="layer1">
    <path
       style="font-stretch:condensed;font-size:156.849px;line-height:1.25;font-family:Arial;-inkscape-font-specification:'Arial Condensed';word-spacing:0px;stroke-width:0.816922"
       d="m 6.5669083,468.26147 11.4879637,-1.22538 q 0.919037,9.26696 4.135667,14.47483 3.293216,5.13129 9.343544,8.27134 6.050328,3.14004 13.632384,3.14004 10.875272,0 16.849013,-5.28446 6.050328,-5.36105 6.050328,-13.86214 0,-4.97812 -2.221007,-8.65427 -2.144419,-3.75274 -6.586432,-6.12691 -4.365426,-2.37418 -18.993434,-6.66302 -13.019692,-3.82932 -18.533914,-7.73523 -5.514223,-3.90591 -8.57768,-9.87965 -3.063457,-6.05033 -3.063457,-13.63239 0,-13.63238 8.807439,-22.28664 8.807439,-8.65427 23.741792,-8.65427 10.262581,0 17.921223,4.05908 7.735229,4.05908 11.947482,11.64114 4.28884,7.58205 4.595186,17.84463 l -11.717723,1.07221 q -0.919037,-10.95186 -6.586433,-16.23632 -5.590809,-5.28446 -15.776803,-5.28446 -10.339168,0 -15.776804,4.67177 -5.437636,4.59519 -5.437636,11.94748 0,6.81619 3.982494,10.56893 3.982494,3.75273 17.921224,7.58205 13.632383,3.75274 19.146606,6.50985 8.424507,4.28884 12.713346,11.33479 4.28884,6.96937 4.28884,16.69584 0,9.64989 -4.518599,17.61488 -4.518599,7.8884 -12.330414,12.02407 -7.735229,4.13567 -18.687088,4.13567 -17.078773,0 -27.264767,-10.26258 Q 6.9498404,485.79976 6.5669083,468.26147 Z m 113.4244917,23.74179 1.53173,12.17725 q -4.67177,1.22538 -8.42451,1.22538 -5.89715,0 -9.49671,-2.29759 -3.59956,-2.37418 -4.97812,-6.43326 -1.30197,-4.05908 -1.30197,-16.15974 V 433.721 h -8.271334 v -10.7221 h 8.271334 v -20.14223 l 11.2582,-8.27134 v 28.41357 h 11.41138 v 10.7221 h -11.41138 v 47.56017 q 0,6.58643 0.99563,8.50109 1.45514,2.75711 5.43763,2.75711 1.91467,0 4.97812,-0.53611 z m 10.56893,12.33042 V 422.9989 h 10.18599 v 12.33041 q 3.90591,-8.57768 7.12254,-11.33479 3.29322,-2.8337 7.3523,-2.8337 5.66739,0 11.56455,4.44201 l -3.82932,12.78994 q -4.21226,-2.98687 -8.19475,-2.98687 -3.59956,0 -6.58643,2.52735 -2.98687,2.52735 -4.21226,7.04595 -2.14442,7.8884 -2.14442,16.77243 v 42.58205 z m 42.81181,-96.42231 v -15.85339 h 11.2582 v 15.85339 z m 0,96.42231 V 422.9989 h 11.2582 v 81.33478 z m 28.56674,0 V 422.9989 h 10.18599 v 11.56455 q 3.67615,-6.73961 8.96061,-10.03283 5.36105,-3.3698 12.25383,-3.3698 5.36105,0 9.87965,2.14442 4.59519,2.06783 7.3523,5.51422 2.8337,3.36981 4.21225,8.80744 1.37856,5.43764 1.37856,16.69584 v 50.01094 h -11.33479 v -49.47483 q 0,-8.96061 -1.53173,-13.09628 -1.53173,-4.13567 -4.82495,-6.35667 -3.21663,-2.2976 -7.50547,-2.2976 -8.11816,0 -12.9431,6.05033 -4.82495,6.05033 -4.82495,20.75492 v 44.42013 z m 69.38732,6.7396 11.02844,1.99125 q 0.76587,6.50985 4.59519,9.64989 3.82932,3.21663 10.64551,3.21663 7.42888,0 11.79431,-3.59956 4.44201,-3.52298 6.05033,-10.56893 0.99562,-4.28884 0.99562,-18.07439 -3.67615,5.28446 -8.27133,7.96498 -4.59519,2.68053 -10.186,2.68053 -11.94748,0 -19.83588,-10.10941 -9.0372,-11.64114 -9.0372,-31.17067 0,-13.09628 3.98249,-22.89935 3.9825,-9.80306 10.41576,-14.39824 6.50984,-4.59519 14.55142,-4.59519 5.89715,0 10.7221,2.91029 4.90153,2.91028 8.65426,8.73085 v -9.80306 h 10.41576 v 70.30633 q 0,18.76368 -3.06346,26.72867 -3.06346,8.04157 -10.03282,12.63676 -6.96937,4.67177 -16.77243,4.67177 -12.9431,0 -19.91247,-6.96937 -6.96936,-6.96936 -6.7396,-19.29978 z m 9.42013,-48.86213 q 0,16.00656 5.28446,23.35885 5.28446,7.3523 12.94311,7.3523 7.65864,0 13.01969,-7.19912 5.36105,-7.19913 5.36105,-22.89934 0,-15.31729 -5.51423,-22.74617 -5.51422,-7.50547 -13.40262,-7.50547 -7.04595,0 -12.407,7.50547 -5.28446,7.42888 -5.28446,22.13348 z m 61.80523,6.05032 11.48796,-1.22538 q 0.91904,9.26696 4.13567,14.47483 3.29322,5.13129 9.34354,8.27134 6.05033,3.14004 13.63239,3.14004 10.87527,0 16.84901,-5.28446 6.05033,-5.36105 6.05033,-13.86214 0,-4.97812 -2.22101,-8.65427 -2.14442,-3.75274 -6.58643,-6.12691 -4.36543,-2.37418 -18.99343,-6.66302 -13.0197,-3.82932 -18.53392,-7.73523 -5.51422,-3.90591 -8.57768,-9.87965 -3.06346,-6.05033 -3.06346,-13.63239 0,-13.63238 8.80744,-22.28664 8.80744,-8.65427 23.74179,-8.65427 10.26259,0 17.92123,4.05908 7.73523,4.05908 11.94748,11.64114 4.28884,7.58205 4.59519,17.84463 l -11.71773,1.07221 q -0.91903,-10.95186 -6.58643,-16.23632 -5.59081,-5.28446 -15.7768,-5.28446 -10.33917,0 -15.77681,4.67177 -5.43763,4.59519 -5.43763,11.94748 0,6.81619 3.98249,10.56893 3.98249,3.75273 17.92122,7.58205 13.63239,3.75274 19.14661,6.50985 8.42451,4.28884 12.71335,11.33479 4.28884,6.96937 4.28884,16.69584 0,9.64989 -4.5186,17.61488 -4.5186,7.8884 -12.33042,12.02407 -7.73523,4.13567 -18.68708,4.13567 -17.07878,0 -27.26477,-10.26258 -10.10941,-10.26259 -10.49234,-27.80088 z m 130.73302,67.24288 v -39.82494 q -2.68052,4.67178 -7.50547,7.58206 -4.74835,2.91028 -9.5733,2.91028 -11.94748,0 -20.67833,-11.33479 -8.73086,-11.33479 -8.73086,-31.93654 0,-17.92122 7.3523,-29.79212 7.3523,-11.94748 20.83151,-11.94748 6.2035,0 11.02844,3.21663 4.82495,3.14004 8.34792,9.49672 V 422.9989 h 10.186 v 112.50545 z m -34.92341,-72.06782 q 0,15.85339 5.51423,23.6652 5.51422,7.73523 13.17286,7.73523 6.81619,0 12.10066,-7.42888 5.28446,-7.50547 5.28446,-22.28665 0,-16.77243 -5.59081,-24.89059 -5.51422,-8.19475 -13.17286,-8.19475 -6.96937,0 -12.17725,7.65865 -5.13129,7.58205 -5.13129,23.74179 z m 107.68054,40.89715 V 492.3862 q -3.90591,6.89278 -9.19038,10.33916 -5.28446,3.44639 -11.94748,3.44639 -7.8884,0 -13.47921,-4.21225 -5.59081,-4.28884 -7.50547,-10.79869 -1.83807,-6.50984 -1.83807,-17.76805 V 422.9989 h 11.2582 v 45.1094 q 0,12.56017 1.22538,16.84901 1.30197,4.21226 4.67178,6.8162 3.44639,2.52735 7.81181,2.52735 8.11816,0 13.32604,-6.66302 4.44201,-5.74398 4.44201,-21.06127 V 422.9989 h 11.33479 v 81.33478 z m 71.30194,-10.03282 q -5.66739,5.89715 -11.79431,8.88402 -6.12691,2.98687 -12.71334,2.98687 -10.41576,0 -16.61926,-6.28008 -6.2035,-6.28009 -6.2035,-16.9256 0,-7.04595 2.91029,-12.48359 2.91028,-5.43764 7.96499,-8.50109 5.0547,-3.06346 15.31728,-4.5186 13.78556,-1.99125 20.21882,-4.74836 l 0.0766,-3.52298 q 0,-8.34792 -2.98687,-11.71772 -4.21225,-4.90153 -12.9431,-4.90153 -7.88841,0 -11.79431,3.29321 -3.90591,3.21663 -5.74398,12.17725 l -11.10504,-1.83808 q 2.37418,-13.09628 9.57331,-19.07002 7.27571,-5.97374 20.75492,-5.97374 10.49234,0 16.46608,3.9825 5.97374,3.9059 7.50547,9.72647 1.60831,5.82057 1.60831,17.00219 v 18.38074 q 0,19.29978 0.68928,24.35448 0.76587,4.97812 2.91029,9.72648 h -11.79431 q -1.76149,-4.21225 -2.2976,-10.03282 z m -0.91903,-30.78775 q -6.2035,3.06346 -18.45733,5.20788 -7.12254,1.22538 -9.95624,2.8337 -2.8337,1.53173 -4.44201,4.44201 -1.53173,2.8337 -1.53173,6.58643 0,5.82057 3.59956,9.34355 3.59957,3.44639 9.95624,3.44639 6.05033,0 10.95186,-3.14005 4.97812,-3.14004 7.42888,-8.34792 2.45077,-5.28446 2.45077,-15.31728 z m 24.66084,16.54267 11.18162,-2.14442 q 0.99562,8.57768 5.43764,12.78994 4.44201,4.13566 11.79431,4.13566 7.35229,0 11.33479,-3.59956 4.05908,-3.67615 4.05908,-9.26696 0,-4.82494 -3.44639,-7.50547 -2.37418,-1.83807 -11.48797,-4.59518 -13.17286,-4.05908 -17.61487,-6.89278 -4.44202,-2.8337 -6.89278,-7.58206 -2.45077,-4.74835 -2.45077,-10.79868 0,-10.41576 6.66302,-16.9256 6.66302,-6.50985 18.45733,-6.50985 7.42888,0 13.01969,2.68053 5.6674,2.68052 8.65427,7.19912 2.98687,4.5186 4.13567,12.94311 l -11.02845,1.83807 q -1.53173,-13.32604 -14.47483,-13.32604 -7.3523,0 -10.95186,2.98687 -3.59956,2.91029 -3.59956,7.50547 0,4.5186 3.44638,7.12254 2.06784,1.53173 12.25383,4.90153 14.01532,4.5186 18.15099,7.19913 4.13566,2.60393 6.43326,7.19912 2.29759,4.5186 2.29759,10.79869 0,11.64113 -7.42889,18.84026 -7.35229,7.19912 -20.14223,7.19912 -23.97155,0 -27.80087,-26.19256 z m 68.62142,24.2779 v -112.2757 h 11.25821 v 40.28446 q 3.98249,-5.59081 8.96061,-8.34792 5.0547,-2.8337 11.10503,-2.8337 10.64551,0 16.77243,6.81619 6.2035,6.73961 6.2035,24.814 v 51.54267 h -11.25821 v -51.54267 q 0,-10.56892 -3.75273,-15.16411 -3.75274,-4.59518 -10.33917,-4.59518 -7.3523,0 -12.56017,5.89715 -5.13129,5.89716 -5.13129,20.9081 v 44.49671 z"
       id="text1"
       transform="scale(1.4639608,0.68307838)"
       aria-label="StringSquash" />
    <path
       id="rect1"
       style="fill:#404040;stroke:#404040;stroke-width:11.6317;stroke-linecap:square;stroke-linejoin:bevel;paint-order:stroke markers fill"
       d="M 297.24955,81.742111 808.6801,82.32924 1048.1428,244.4535 H 63.058645 Z" />
    <path
       id="path1"
       style="fill:none;stroke:#404040;stroke-width:10.8459;stroke-linecap:square;stroke-linejoin:bevel;paint-order:stroke markers fill"
       d="m 628.05573,91.068176 c 0,86.108494 -138.6565,107.398834 -138.6565,0 0,-39.017853 31.03932,-70.648073 69.32825,-70.648071 38.28893,-2e-6 69.32825,31.630218 69.32825,70.648071 z" />
  </g>
</svg>
